<mxfile host="app.diagrams.net" agent="Mozilla/5.0 (Windows NT 10.0; Win64; x64) AppleWebKit/537.36 (KHTML, like Gecko) Chrome/129.0.0.0 Safari/537.36" modified="2024-09-22T21:15:12.190Z" version="24.0.2" etag="5j4uQgWjc20MO1_61qHv" type="github">
  <diagram name="Página-1" id="74GLTB2vqmmj7NhmQDI3">
    <mxGraphModel dx="1206" dy="467" grid="0" gridSize="10" guides="1" tooltips="1" connect="1" arrows="1" fold="1" page="0" pageScale="1" pageWidth="827" pageHeight="1169" background="#FFFDFE" math="0" shadow="0">
      <root>
        <mxCell id="0" />
        <mxCell id="1" parent="0" />
        <mxCell id="-mUKGB88UWc1St8DoL5Q-1" value="&lt;div style=&quot;box-sizing:border-box;width:100%;background:#e4e4e4;padding:2px;&quot;&gt;Funcionarios&lt;/div&gt;&lt;table style=&quot;width:100%;font-size:1em;&quot; cellpadding=&quot;2&quot; cellspacing=&quot;0&quot;&gt;&lt;tbody&gt;&lt;tr&gt;&lt;td&gt;PK&lt;/td&gt;&lt;td&gt;id&lt;br&gt;&lt;/td&gt;&lt;/tr&gt;&lt;tr&gt;&lt;td&gt;&lt;br&gt;&lt;/td&gt;&lt;td&gt;nm_Nome&lt;/td&gt;&lt;/tr&gt;&lt;tr&gt;&lt;td&gt;&lt;br&gt;&lt;br&gt;&lt;/td&gt;&lt;td&gt;ds_Email&lt;br&gt;ds_Senha&lt;br&gt;cd_Celular&lt;br&gt;ds_Cargo&lt;br&gt;is_Disponivel&lt;br&gt;is_Ativo&lt;br&gt;dt_UltimaAtividade&lt;br&gt;&lt;/td&gt;&lt;/tr&gt;&lt;tr&gt;&lt;td&gt;FK&lt;/td&gt;&lt;td&gt;endereco_id&lt;br&gt;&lt;/td&gt;&lt;/tr&gt;&lt;tr&gt;&lt;td&gt;&lt;br&gt;&lt;/td&gt;&lt;td&gt;&lt;br&gt;&lt;/td&gt;&lt;/tr&gt;&lt;/tbody&gt;&lt;/table&gt;" style="verticalAlign=top;align=left;overflow=fill;html=1;rounded=0;shadow=0;comic=0;labelBackgroundColor=none;strokeWidth=1;fontFamily=Verdana;fontSize=12" parent="1" vertex="1">
          <mxGeometry x="-100" y="136" width="180" height="185" as="geometry" />
        </mxCell>
        <mxCell id="-mUKGB88UWc1St8DoL5Q-2" value="&lt;div style=&quot;box-sizing: border-box ; width: 100% ; background: #e4e4e4 ; padding: 2px&quot;&gt;Especialidades&lt;/div&gt;&lt;table style=&quot;width: 100% ; font-size: 1em&quot; cellpadding=&quot;2&quot; cellspacing=&quot;0&quot;&gt;&lt;tbody&gt;&lt;tr&gt;&lt;td&gt;PK&lt;/td&gt;&lt;td&gt;id&lt;/td&gt;&lt;/tr&gt;&lt;tr&gt;&lt;td&gt;&lt;br&gt;&lt;/td&gt;&lt;td&gt;nm_Nome&lt;/td&gt;&lt;/tr&gt;&lt;tr&gt;&lt;td&gt;&lt;/td&gt;&lt;td&gt;ds_Descrição&lt;br&gt;ds_Cor&lt;/td&gt;&lt;/tr&gt;&lt;tr&gt;&lt;td&gt;&lt;/td&gt;&lt;td&gt;&lt;br&gt;&lt;/td&gt;&lt;/tr&gt;&lt;/tbody&gt;&lt;/table&gt;" style="verticalAlign=top;align=left;overflow=fill;html=1;rounded=0;shadow=0;comic=0;labelBackgroundColor=none;strokeWidth=1;fontFamily=Verdana;fontSize=12" parent="1" vertex="1">
          <mxGeometry x="219" y="23" width="180" height="89" as="geometry" />
        </mxCell>
        <mxCell id="-mUKGB88UWc1St8DoL5Q-3" value="&lt;div style=&quot;box-sizing: border-box ; width: 100% ; background: #e4e4e4 ; padding: 2px&quot;&gt;Clientes&lt;/div&gt;&lt;table style=&quot;width: 100% ; font-size: 1em&quot; cellpadding=&quot;2&quot; cellspacing=&quot;0&quot;&gt;&lt;tbody&gt;&lt;tr&gt;&lt;td&gt;PK&lt;/td&gt;&lt;td&gt;id&lt;/td&gt;&lt;/tr&gt;&lt;tr&gt;&lt;td&gt;&lt;br&gt;&lt;/td&gt;&lt;td&gt;cd_CNPJ&lt;/td&gt;&lt;/tr&gt;&lt;tr&gt;&lt;td&gt;&lt;/td&gt;&lt;td&gt;nm_Nome&lt;/td&gt;&lt;/tr&gt;&lt;tr&gt;&lt;td&gt;FK&lt;/td&gt;&lt;td&gt;endereco_id&lt;/td&gt;&lt;/tr&gt;&lt;tr&gt;&lt;td&gt;FK&lt;/td&gt;&lt;td&gt;contato_id&lt;/td&gt;&lt;/tr&gt;&lt;/tbody&gt;&lt;/table&gt;" style="verticalAlign=top;align=left;overflow=fill;html=1;rounded=0;shadow=0;comic=0;labelBackgroundColor=none;strokeWidth=1;fontFamily=Verdana;fontSize=12" parent="1" vertex="1">
          <mxGeometry x="225" y="342" width="180" height="117" as="geometry" />
        </mxCell>
        <mxCell id="-mUKGB88UWc1St8DoL5Q-6" value="&lt;div style=&quot;box-sizing:border-box;width:100%;background:#e4e4e4;padding:2px;&quot;&gt;Situação&lt;/div&gt;&lt;table style=&quot;width:100%;font-size:1em;&quot; cellpadding=&quot;2&quot; cellspacing=&quot;0&quot;&gt;&lt;tbody&gt;&lt;tr&gt;&lt;td&gt;PK&lt;/td&gt;&lt;td&gt;id&lt;/td&gt;&lt;/tr&gt;&lt;tr&gt;&lt;td&gt;&lt;br&gt;&lt;/td&gt;&lt;td&gt;ds_Descricao&lt;/td&gt;&lt;/tr&gt;&lt;tr&gt;&lt;td&gt;&lt;/td&gt;&lt;td&gt;&lt;br&gt;&lt;/td&gt;&lt;/tr&gt;&lt;/tbody&gt;&lt;/table&gt;" style="verticalAlign=top;align=left;overflow=fill;html=1;rounded=0;shadow=0;comic=0;labelBackgroundColor=none;strokeWidth=1;fontFamily=Verdana;fontSize=12" parent="1" vertex="1">
          <mxGeometry x="546" y="264" width="180" height="60" as="geometry" />
        </mxCell>
        <mxCell id="-mUKGB88UWc1St8DoL5Q-8" value="&lt;div style=&quot;box-sizing:border-box;width:100%;background:#e4e4e4;padding:2px;&quot;&gt;Servicos&lt;/div&gt;&lt;table style=&quot;width:100%;font-size:1em;&quot; cellpadding=&quot;2&quot; cellspacing=&quot;0&quot;&gt;&lt;tbody&gt;&lt;tr&gt;&lt;td&gt;PK&lt;/td&gt;&lt;td&gt;id&lt;/td&gt;&lt;/tr&gt;&lt;tr&gt;&lt;td&gt;&lt;br&gt;&lt;/td&gt;&lt;td&gt;ds_Descricao&lt;/td&gt;&lt;/tr&gt;&lt;tr&gt;&lt;td&gt;&lt;br&gt;&lt;/td&gt;&lt;td&gt;nm_Nome&lt;/td&gt;&lt;/tr&gt;&lt;tr&gt;&lt;td&gt;&lt;/td&gt;&lt;td&gt;&lt;br&gt;&lt;/td&gt;&lt;/tr&gt;&lt;/tbody&gt;&lt;/table&gt;" style="verticalAlign=top;align=left;overflow=fill;html=1;rounded=0;shadow=0;comic=0;labelBackgroundColor=none;strokeWidth=1;fontFamily=Verdana;fontSize=12" parent="1" vertex="1">
          <mxGeometry x="542" y="145" width="180" height="78" as="geometry" />
        </mxCell>
        <mxCell id="-mUKGB88UWc1St8DoL5Q-9" style="edgeStyle=orthogonalEdgeStyle;rounded=0;orthogonalLoop=1;jettySize=auto;html=1;exitX=0.5;exitY=1;exitDx=0;exitDy=0;" parent="1" source="-mUKGB88UWc1St8DoL5Q-8" target="-mUKGB88UWc1St8DoL5Q-8" edge="1">
          <mxGeometry relative="1" as="geometry" />
        </mxCell>
        <mxCell id="-mUKGB88UWc1St8DoL5Q-11" value="&lt;div style=&quot;box-sizing:border-box;width:100%;background:#e4e4e4;padding:2px;&quot;&gt;FuncionarioEspecialidades&lt;/div&gt;&lt;table style=&quot;width:100%;font-size:1em;&quot; cellpadding=&quot;2&quot; cellspacing=&quot;0&quot;&gt;&lt;tbody&gt;&lt;tr&gt;&lt;td&gt;PK&lt;/td&gt;&lt;td&gt;id&lt;/td&gt;&lt;/tr&gt;&lt;tr&gt;&lt;td&gt;FK&lt;/td&gt;&lt;td&gt;funcionario_id&lt;/td&gt;&lt;/tr&gt;&lt;tr&gt;&lt;td&gt;FK&lt;/td&gt;&lt;td&gt;especialidade_id&lt;/td&gt;&lt;/tr&gt;&lt;/tbody&gt;&lt;/table&gt;" style="verticalAlign=top;align=left;overflow=fill;html=1;rounded=0;shadow=0;comic=0;labelBackgroundColor=none;strokeWidth=1;fontFamily=Verdana;fontSize=12" parent="1" vertex="1">
          <mxGeometry x="-100" y="27.5" width="180" height="80" as="geometry" />
        </mxCell>
        <mxCell id="-mUKGB88UWc1St8DoL5Q-14" value="&lt;div style=&quot;box-sizing:border-box;width:100%;background:#e4e4e4;padding:2px;&quot;&gt;ServicoEspecialidades&lt;/div&gt;&lt;table style=&quot;width:100%;font-size:1em;&quot; cellpadding=&quot;2&quot; cellspacing=&quot;0&quot;&gt;&lt;tbody&gt;&lt;tr&gt;&lt;td&gt;PK&lt;/td&gt;&lt;td&gt;id&lt;/td&gt;&lt;/tr&gt;&lt;tr&gt;&lt;td&gt;FK&lt;/td&gt;&lt;td&gt;especialidade_id&lt;/td&gt;&lt;/tr&gt;&lt;tr&gt;&lt;td&gt;FK&lt;/td&gt;&lt;td&gt;servico_id&lt;/td&gt;&lt;/tr&gt;&lt;/tbody&gt;&lt;/table&gt;" style="verticalAlign=top;align=left;overflow=fill;html=1;rounded=0;shadow=0;comic=0;labelBackgroundColor=none;strokeWidth=1;fontFamily=Verdana;fontSize=12" parent="1" vertex="1">
          <mxGeometry x="542" y="31" width="180" height="73" as="geometry" />
        </mxCell>
        <mxCell id="-mUKGB88UWc1St8DoL5Q-19" value="&lt;div style=&quot;box-sizing:border-box;width:100%;background:#e4e4e4;padding:2px;&quot;&gt;Enderecos&lt;/div&gt;&lt;table style=&quot;width:100%;font-size:1em;&quot; cellpadding=&quot;2&quot; cellspacing=&quot;0&quot;&gt;&lt;tbody&gt;&lt;tr&gt;&lt;td&gt;PK&lt;/td&gt;&lt;td&gt;id&lt;/td&gt;&lt;/tr&gt;&lt;tr&gt;&lt;td&gt;&lt;br&gt;&lt;/td&gt;&lt;td&gt;cd_CEP&lt;/td&gt;&lt;/tr&gt;&lt;tr&gt;&lt;td&gt;&lt;br&gt;&lt;/td&gt;&lt;td&gt;ds_Logradouro&lt;/td&gt;&lt;/tr&gt;&lt;tr&gt;&lt;td&gt;&lt;br&gt;&lt;/td&gt;&lt;td&gt;cd_Numero&lt;br&gt;ds_Complemento&lt;br&gt;nm_Bairro&lt;br&gt;nm_Cidade&lt;br&gt;sg_UF&lt;/td&gt;&lt;/tr&gt;&lt;tr&gt;&lt;td&gt;&lt;/td&gt;&lt;td&gt;&lt;br&gt;&lt;/td&gt;&lt;/tr&gt;&lt;/tbody&gt;&lt;/table&gt;" style="verticalAlign=top;align=left;overflow=fill;html=1;rounded=0;shadow=0;comic=0;labelBackgroundColor=none;strokeWidth=1;fontFamily=Verdana;fontSize=12" parent="1" vertex="1">
          <mxGeometry x="-100" y="348" width="180" height="157" as="geometry" />
        </mxCell>
        <mxCell id="-mUKGB88UWc1St8DoL5Q-21" value="&lt;div style=&quot;box-sizing:border-box;width:100%;background:#e4e4e4;padding:2px;&quot;&gt;Ordens&lt;/div&gt;&amp;nbsp;PK&lt;span style=&quot;white-space: pre;&quot;&gt;&#x9;&lt;/span&gt;id&lt;div&gt;&lt;span style=&quot;background-color: initial; white-space-collapse: preserve;&quot;&gt;&#x9;&lt;/span&gt;&lt;span style=&quot;background-color: initial;&quot;&gt;ds_Ordem&lt;/span&gt;&lt;br&gt;&lt;/div&gt;&lt;div&gt;&lt;span style=&quot;white-space: pre;&quot;&gt;&#x9;&lt;/span&gt;dt_Abertura&lt;br&gt;&lt;/div&gt;&lt;div&gt;&lt;span style=&quot;white-space: pre;&quot;&gt;&#x9;&lt;/span&gt;dt_Atendimento&lt;/div&gt;&lt;div&gt;&lt;span style=&quot;white-space: pre;&quot;&gt;&#x9;&lt;/span&gt;ds_Atendimento&lt;br&gt;&lt;/div&gt;&lt;div&gt;&lt;div&gt;&amp;nbsp;FK&lt;span style=&quot;white-space-collapse: preserve;&quot;&gt;&#x9;&lt;/span&gt;servico_id&lt;/div&gt;&lt;div&gt;&amp;nbsp;FK&lt;span style=&quot;white-space-collapse: preserve;&quot;&gt;&#x9;&lt;/span&gt;cliente_id&lt;br&gt;&lt;/div&gt;&lt;div&gt;&amp;nbsp;FK&lt;span style=&quot;white-space-collapse: preserve;&quot;&gt;&#x9;&lt;/span&gt;funcionario_id&lt;/div&gt;&lt;div&gt;&amp;nbsp;FK&lt;span style=&quot;white-space-collapse: preserve;&quot;&gt;&#x9;&lt;/span&gt;situacao_id&lt;/div&gt;&lt;div&gt;&lt;br&gt;&lt;/div&gt;&lt;table style=&quot;width:100%;font-size:1em;&quot; cellpadding=&quot;2&quot; cellspacing=&quot;0&quot;&gt;&lt;tbody&gt;&lt;/tbody&gt;&lt;/table&gt;&lt;/div&gt;" style="verticalAlign=top;align=left;overflow=fill;html=1;rounded=0;shadow=0;comic=0;labelBackgroundColor=none;strokeWidth=1;fontFamily=Verdana;fontSize=12" parent="1" vertex="1">
          <mxGeometry x="221" y="160" width="180" height="151" as="geometry" />
        </mxCell>
        <mxCell id="-mUKGB88UWc1St8DoL5Q-44" style="edgeStyle=none;shape=connector;curved=1;rounded=0;orthogonalLoop=1;jettySize=auto;html=1;exitX=0;exitY=0.5;exitDx=0;exitDy=0;entryX=1;entryY=0.5;entryDx=0;entryDy=0;strokeColor=default;strokeWidth=2;align=center;verticalAlign=middle;fontFamily=Architects Daughter;fontSource=https%3A%2F%2Ffonts.googleapis.com%2Fcss%3Ffamily%3DArchitects%2BDaughter;fontSize=16;fontColor=default;labelBackgroundColor=default;endArrow=none;flowAnimation=0;sourcePerimeterSpacing=8;targetPerimeterSpacing=8;endFill=0;" parent="1" source="-mUKGB88UWc1St8DoL5Q-24" target="-mUKGB88UWc1St8DoL5Q-11" edge="1">
          <mxGeometry relative="1" as="geometry" />
        </mxCell>
        <mxCell id="-mUKGB88UWc1St8DoL5Q-24" value="" style="rhombus;whiteSpace=wrap;html=1;fontFamily=Architects Daughter;fontSource=https%3A%2F%2Ffonts.googleapis.com%2Fcss%3Ffamily%3DArchitects%2BDaughter;" parent="1" vertex="1">
          <mxGeometry x="123" y="41" width="56" height="53" as="geometry" />
        </mxCell>
        <mxCell id="-mUKGB88UWc1St8DoL5Q-32" value="&lt;font face=&quot;Helvetica&quot; style=&quot;font-size: 21px;&quot;&gt;N&lt;/font&gt;" style="text;html=1;align=center;verticalAlign=middle;resizable=0;points=[];autosize=1;strokeColor=none;fillColor=none;fontSize=21;fontFamily=Architects Daughter;fontSource=https%3A%2F%2Ffonts.googleapis.com%2Fcss%3Ffamily%3DArchitects%2BDaughter;" parent="1" vertex="1">
          <mxGeometry x="85" y="31" width="33" height="38" as="geometry" />
        </mxCell>
        <mxCell id="-mUKGB88UWc1St8DoL5Q-40" style="edgeStyle=none;curved=1;rounded=0;orthogonalLoop=1;jettySize=auto;html=1;fontFamily=Architects Daughter;fontSource=https%3A%2F%2Ffonts.googleapis.com%2Fcss%3Ffamily%3DArchitects%2BDaughter;fontSize=16;endArrow=none;sourcePerimeterSpacing=8;targetPerimeterSpacing=8;entryX=0;entryY=0.5;entryDx=0;entryDy=0;strokeWidth=2;flowAnimation=0;exitX=1;exitY=0.5;exitDx=0;exitDy=0;endFill=0;" parent="1" source="-mUKGB88UWc1St8DoL5Q-24" target="-mUKGB88UWc1St8DoL5Q-2" edge="1">
          <mxGeometry relative="1" as="geometry">
            <mxPoint x="219" y="76" as="targetPoint" />
          </mxGeometry>
        </mxCell>
        <mxCell id="-mUKGB88UWc1St8DoL5Q-46" style="edgeStyle=none;shape=connector;curved=1;rounded=0;orthogonalLoop=1;jettySize=auto;html=1;exitX=0;exitY=0.5;exitDx=0;exitDy=0;entryX=1;entryY=0.5;entryDx=0;entryDy=0;strokeColor=default;strokeWidth=2;align=center;verticalAlign=middle;fontFamily=Architects Daughter;fontSource=https%3A%2F%2Ffonts.googleapis.com%2Fcss%3Ffamily%3DArchitects%2BDaughter;fontSize=16;fontColor=default;labelBackgroundColor=default;endArrow=none;flowAnimation=0;sourcePerimeterSpacing=8;targetPerimeterSpacing=8;endFill=0;" parent="1" source="-mUKGB88UWc1St8DoL5Q-45" target="-mUKGB88UWc1St8DoL5Q-2" edge="1">
          <mxGeometry relative="1" as="geometry" />
        </mxCell>
        <mxCell id="-mUKGB88UWc1St8DoL5Q-47" style="edgeStyle=none;shape=connector;curved=1;rounded=0;orthogonalLoop=1;jettySize=auto;html=1;exitX=1;exitY=0.5;exitDx=0;exitDy=0;entryX=0;entryY=0.5;entryDx=0;entryDy=0;strokeColor=default;strokeWidth=2;align=center;verticalAlign=middle;fontFamily=Architects Daughter;fontSource=https%3A%2F%2Ffonts.googleapis.com%2Fcss%3Ffamily%3DArchitects%2BDaughter;fontSize=16;fontColor=default;labelBackgroundColor=default;endArrow=none;flowAnimation=0;sourcePerimeterSpacing=8;targetPerimeterSpacing=8;startSize=14;endSize=14;endFill=0;" parent="1" source="-mUKGB88UWc1St8DoL5Q-45" target="-mUKGB88UWc1St8DoL5Q-14" edge="1">
          <mxGeometry relative="1" as="geometry" />
        </mxCell>
        <mxCell id="-mUKGB88UWc1St8DoL5Q-45" value="" style="rhombus;whiteSpace=wrap;html=1;fontFamily=Architects Daughter;fontSource=https%3A%2F%2Ffonts.googleapis.com%2Fcss%3Ffamily%3DArchitects%2BDaughter;" parent="1" vertex="1">
          <mxGeometry x="443" y="41" width="56" height="53" as="geometry" />
        </mxCell>
        <mxCell id="-mUKGB88UWc1St8DoL5Q-50" style="edgeStyle=orthogonalEdgeStyle;shape=connector;rounded=0;orthogonalLoop=1;jettySize=auto;html=1;strokeColor=default;strokeWidth=2;align=center;verticalAlign=middle;fontFamily=Architects Daughter;fontSource=https%3A%2F%2Ffonts.googleapis.com%2Fcss%3Ffamily%3DArchitects%2BDaughter;fontSize=16;fontColor=default;labelBackgroundColor=default;endArrow=none;endFill=0;flowAnimation=0;sourcePerimeterSpacing=8;targetPerimeterSpacing=8;entryX=0;entryY=0.5;entryDx=0;entryDy=0;exitX=0.5;exitY=0;exitDx=0;exitDy=0;" parent="1" source="-mUKGB88UWc1St8DoL5Q-49" target="-mUKGB88UWc1St8DoL5Q-11" edge="1">
          <mxGeometry relative="1" as="geometry">
            <mxPoint x="-134" y="48" as="targetPoint" />
          </mxGeometry>
        </mxCell>
        <mxCell id="-mUKGB88UWc1St8DoL5Q-52" style="edgeStyle=orthogonalEdgeStyle;shape=connector;rounded=0;orthogonalLoop=1;jettySize=auto;html=1;exitX=0.5;exitY=1;exitDx=0;exitDy=0;entryX=0;entryY=0.25;entryDx=0;entryDy=0;strokeColor=default;strokeWidth=2;align=center;verticalAlign=middle;fontFamily=Architects Daughter;fontSource=https%3A%2F%2Ffonts.googleapis.com%2Fcss%3Ffamily%3DArchitects%2BDaughter;fontSize=16;fontColor=default;labelBackgroundColor=default;endArrow=none;endFill=0;flowAnimation=0;sourcePerimeterSpacing=8;targetPerimeterSpacing=8;" parent="1" source="-mUKGB88UWc1St8DoL5Q-49" target="-mUKGB88UWc1St8DoL5Q-1" edge="1">
          <mxGeometry relative="1" as="geometry" />
        </mxCell>
        <mxCell id="-mUKGB88UWc1St8DoL5Q-49" value="" style="rhombus;whiteSpace=wrap;html=1;fontFamily=Architects Daughter;fontSource=https%3A%2F%2Ffonts.googleapis.com%2Fcss%3Ffamily%3DArchitects%2BDaughter;" parent="1" vertex="1">
          <mxGeometry x="-180" y="88" width="56" height="53" as="geometry" />
        </mxCell>
        <mxCell id="-mUKGB88UWc1St8DoL5Q-53" value="&lt;font face=&quot;Helvetica&quot; style=&quot;font-size: 21px;&quot;&gt;N&lt;/font&gt;" style="text;html=1;align=center;verticalAlign=middle;resizable=0;points=[];autosize=1;strokeColor=none;fillColor=none;fontSize=21;fontFamily=Architects Daughter;fontSource=https%3A%2F%2Ffonts.googleapis.com%2Fcss%3Ffamily%3DArchitects%2BDaughter;" parent="1" vertex="1">
          <mxGeometry x="-138" y="27.5" width="33" height="38" as="geometry" />
        </mxCell>
        <mxCell id="-mUKGB88UWc1St8DoL5Q-54" value="&lt;font face=&quot;Helvetica&quot; style=&quot;font-size: 21px;&quot;&gt;1&lt;/font&gt;" style="text;html=1;align=center;verticalAlign=middle;resizable=0;points=[];autosize=1;strokeColor=none;fillColor=none;fontSize=21;fontFamily=Architects Daughter;fontSource=https%3A%2F%2Ffonts.googleapis.com%2Fcss%3Ffamily%3DArchitects%2BDaughter;" parent="1" vertex="1">
          <mxGeometry x="-140" y="136" width="30" height="38" as="geometry" />
        </mxCell>
        <mxCell id="-mUKGB88UWc1St8DoL5Q-55" value="&lt;font face=&quot;Verdana&quot;&gt;1&lt;/font&gt;" style="text;html=1;align=center;verticalAlign=middle;resizable=0;points=[];autosize=1;strokeColor=none;fillColor=none;fontSize=21;fontFamily=Architects Daughter;fontSource=https%3A%2F%2Ffonts.googleapis.com%2Fcss%3Ffamily%3DArchitects%2BDaughter;" parent="1" vertex="1">
          <mxGeometry x="184" y="30" width="31" height="39" as="geometry" />
        </mxCell>
        <mxCell id="-mUKGB88UWc1St8DoL5Q-57" value="" style="rhombus;whiteSpace=wrap;html=1;fontFamily=Architects Daughter;fontSource=https%3A%2F%2Ffonts.googleapis.com%2Fcss%3Ffamily%3DArchitects%2BDaughter;" parent="1" vertex="1">
          <mxGeometry x="118" y="187" width="56" height="53" as="geometry" />
        </mxCell>
        <mxCell id="-mUKGB88UWc1St8DoL5Q-60" value="&lt;font face=&quot;Helvetica&quot; style=&quot;font-size: 21px;&quot;&gt;N&lt;/font&gt;" style="text;html=1;align=center;verticalAlign=middle;resizable=0;points=[];autosize=1;strokeColor=none;fillColor=none;fontSize=21;fontFamily=Architects Daughter;fontSource=https%3A%2F%2Ffonts.googleapis.com%2Fcss%3Ffamily%3DArchitects%2BDaughter;" parent="1" vertex="1">
          <mxGeometry x="179" y="174" width="33" height="38" as="geometry" />
        </mxCell>
        <mxCell id="-mUKGB88UWc1St8DoL5Q-61" value="&lt;font face=&quot;Verdana&quot;&gt;1&lt;/font&gt;" style="text;html=1;align=center;verticalAlign=middle;resizable=0;points=[];autosize=1;strokeColor=none;fillColor=none;fontSize=21;fontFamily=Architects Daughter;fontSource=https%3A%2F%2Ffonts.googleapis.com%2Fcss%3Ffamily%3DArchitects%2BDaughter;" parent="1" vertex="1">
          <mxGeometry x="80" y="169" width="31" height="39" as="geometry" />
        </mxCell>
        <mxCell id="-mUKGB88UWc1St8DoL5Q-62" value="&lt;font face=&quot;Helvetica&quot; style=&quot;font-size: 21px;&quot;&gt;N&lt;/font&gt;" style="text;html=1;align=center;verticalAlign=middle;resizable=0;points=[];autosize=1;strokeColor=none;fillColor=none;fontSize=21;fontFamily=Architects Daughter;fontSource=https%3A%2F%2Ffonts.googleapis.com%2Fcss%3Ffamily%3DArchitects%2BDaughter;" parent="1" vertex="1">
          <mxGeometry x="505" y="27.5" width="33" height="38" as="geometry" />
        </mxCell>
        <mxCell id="-mUKGB88UWc1St8DoL5Q-63" value="&lt;font face=&quot;Verdana&quot;&gt;1&lt;/font&gt;" style="text;html=1;align=center;verticalAlign=middle;resizable=0;points=[];autosize=1;strokeColor=none;fillColor=none;fontSize=21;fontFamily=Architects Daughter;fontSource=https%3A%2F%2Ffonts.googleapis.com%2Fcss%3Ffamily%3DArchitects%2BDaughter;" parent="1" vertex="1">
          <mxGeometry x="401" y="26.5" width="31" height="39" as="geometry" />
        </mxCell>
        <mxCell id="-mUKGB88UWc1St8DoL5Q-64" value="" style="rhombus;whiteSpace=wrap;html=1;fontFamily=Architects Daughter;fontSource=https%3A%2F%2Ffonts.googleapis.com%2Fcss%3Ffamily%3DArchitects%2BDaughter;" parent="1" vertex="1">
          <mxGeometry x="754" y="72" width="56" height="53" as="geometry" />
        </mxCell>
        <mxCell id="-mUKGB88UWc1St8DoL5Q-65" style="edgeStyle=orthogonalEdgeStyle;shape=connector;rounded=0;orthogonalLoop=1;jettySize=auto;html=1;exitX=0.5;exitY=0;exitDx=0;exitDy=0;entryX=1.006;entryY=0.404;entryDx=0;entryDy=0;entryPerimeter=0;strokeColor=default;strokeWidth=2;align=center;verticalAlign=middle;fontFamily=Architects Daughter;fontSource=https%3A%2F%2Ffonts.googleapis.com%2Fcss%3Ffamily%3DArchitects%2BDaughter;fontSize=16;fontColor=default;labelBackgroundColor=default;endArrow=none;endFill=0;flowAnimation=0;sourcePerimeterSpacing=8;targetPerimeterSpacing=8;" parent="1" source="-mUKGB88UWc1St8DoL5Q-64" target="-mUKGB88UWc1St8DoL5Q-14" edge="1">
          <mxGeometry relative="1" as="geometry">
            <Array as="points">
              <mxPoint x="784" y="61" />
            </Array>
          </mxGeometry>
        </mxCell>
        <mxCell id="-mUKGB88UWc1St8DoL5Q-66" style="edgeStyle=orthogonalEdgeStyle;shape=connector;rounded=0;orthogonalLoop=1;jettySize=auto;html=1;exitX=0.5;exitY=1;exitDx=0;exitDy=0;strokeColor=default;strokeWidth=2;align=center;verticalAlign=middle;fontFamily=Architects Daughter;fontSource=https%3A%2F%2Ffonts.googleapis.com%2Fcss%3Ffamily%3DArchitects%2BDaughter;fontSize=16;fontColor=default;labelBackgroundColor=default;endArrow=none;endFill=0;flowAnimation=0;sourcePerimeterSpacing=8;targetPerimeterSpacing=8;entryX=1;entryY=0.25;entryDx=0;entryDy=0;" parent="1" source="-mUKGB88UWc1St8DoL5Q-64" target="-mUKGB88UWc1St8DoL5Q-8" edge="1">
          <mxGeometry relative="1" as="geometry" />
        </mxCell>
        <mxCell id="-mUKGB88UWc1St8DoL5Q-69" value="&lt;font face=&quot;Verdana&quot;&gt;1&lt;/font&gt;" style="text;html=1;align=center;verticalAlign=middle;resizable=0;points=[];autosize=1;strokeColor=none;fillColor=none;fontSize=21;fontFamily=Architects Daughter;fontSource=https%3A%2F%2Ffonts.googleapis.com%2Fcss%3Ffamily%3DArchitects%2BDaughter;" parent="1" vertex="1">
          <mxGeometry x="726" y="20" width="31" height="39" as="geometry" />
        </mxCell>
        <mxCell id="-mUKGB88UWc1St8DoL5Q-70" value="&lt;font face=&quot;Verdana&quot;&gt;1&lt;/font&gt;" style="text;html=1;align=center;verticalAlign=middle;resizable=0;points=[];autosize=1;strokeColor=none;fillColor=none;fontSize=21;fontFamily=Architects Daughter;fontSource=https%3A%2F%2Ffonts.googleapis.com%2Fcss%3Ffamily%3DArchitects%2BDaughter;" parent="1" vertex="1">
          <mxGeometry x="726" y="125" width="31" height="39" as="geometry" />
        </mxCell>
        <mxCell id="-mUKGB88UWc1St8DoL5Q-71" value="" style="rhombus;whiteSpace=wrap;html=1;fontFamily=Architects Daughter;fontSource=https%3A%2F%2Ffonts.googleapis.com%2Fcss%3Ffamily%3DArchitects%2BDaughter;" parent="1" vertex="1">
          <mxGeometry x="453" y="182" width="56" height="53" as="geometry" />
        </mxCell>
        <mxCell id="-mUKGB88UWc1St8DoL5Q-72" value="" style="rhombus;whiteSpace=wrap;html=1;fontFamily=Architects Daughter;fontSource=https%3A%2F%2Ffonts.googleapis.com%2Fcss%3Ffamily%3DArchitects%2BDaughter;" parent="1" vertex="1">
          <mxGeometry x="451" y="261" width="56" height="53" as="geometry" />
        </mxCell>
        <mxCell id="-mUKGB88UWc1St8DoL5Q-73" style="edgeStyle=orthogonalEdgeStyle;shape=connector;rounded=0;orthogonalLoop=1;jettySize=auto;html=1;exitX=1;exitY=0.5;exitDx=0;exitDy=0;entryX=0;entryY=0.383;entryDx=0;entryDy=0;entryPerimeter=0;strokeColor=default;strokeWidth=2;align=center;verticalAlign=middle;fontFamily=Architects Daughter;fontSource=https%3A%2F%2Ffonts.googleapis.com%2Fcss%3Ffamily%3DArchitects%2BDaughter;fontSize=16;fontColor=default;labelBackgroundColor=default;endArrow=none;endFill=0;flowAnimation=0;sourcePerimeterSpacing=8;targetPerimeterSpacing=8;" parent="1" source="-mUKGB88UWc1St8DoL5Q-72" target="-mUKGB88UWc1St8DoL5Q-6" edge="1">
          <mxGeometry relative="1" as="geometry" />
        </mxCell>
        <mxCell id="-mUKGB88UWc1St8DoL5Q-79" value="&lt;font face=&quot;Verdana&quot;&gt;1&lt;/font&gt;" style="text;html=1;align=center;verticalAlign=middle;resizable=0;points=[];autosize=1;strokeColor=none;fillColor=none;fontSize=21;fontFamily=Architects Daughter;fontSource=https%3A%2F%2Ffonts.googleapis.com%2Fcss%3Ffamily%3DArchitects%2BDaughter;" parent="1" vertex="1">
          <mxGeometry x="507" y="169" width="31" height="39" as="geometry" />
        </mxCell>
        <mxCell id="-mUKGB88UWc1St8DoL5Q-80" value="&lt;font face=&quot;Helvetica&quot; style=&quot;font-size: 21px;&quot;&gt;N&lt;/font&gt;" style="text;html=1;align=center;verticalAlign=middle;resizable=0;points=[];autosize=1;strokeColor=none;fillColor=none;fontSize=21;fontFamily=Architects Daughter;fontSource=https%3A%2F%2Ffonts.googleapis.com%2Fcss%3Ffamily%3DArchitects%2BDaughter;" parent="1" vertex="1">
          <mxGeometry x="414" y="170" width="33" height="38" as="geometry" />
        </mxCell>
        <mxCell id="-mUKGB88UWc1St8DoL5Q-82" value="&lt;font face=&quot;Verdana&quot;&gt;N&lt;/font&gt;" style="text;html=1;align=center;verticalAlign=middle;resizable=0;points=[];autosize=1;strokeColor=none;fillColor=none;fontSize=21;fontFamily=Architects Daughter;fontSource=https%3A%2F%2Ffonts.googleapis.com%2Fcss%3Ffamily%3DArchitects%2BDaughter;" parent="1" vertex="1">
          <mxGeometry x="404" y="285" width="34" height="39" as="geometry" />
        </mxCell>
        <mxCell id="-mUKGB88UWc1St8DoL5Q-83" value="&lt;font face=&quot;Verdana&quot;&gt;1&lt;/font&gt;" style="text;html=1;align=center;verticalAlign=middle;resizable=0;points=[];autosize=1;strokeColor=none;fillColor=none;fontSize=21;fontFamily=Architects Daughter;fontSource=https%3A%2F%2Ffonts.googleapis.com%2Fcss%3Ffamily%3DArchitects%2BDaughter;" parent="1" vertex="1">
          <mxGeometry x="507" y="285" width="31" height="39" as="geometry" />
        </mxCell>
        <mxCell id="-mUKGB88UWc1St8DoL5Q-119" style="edgeStyle=orthogonalEdgeStyle;shape=connector;rounded=0;orthogonalLoop=1;jettySize=auto;html=1;exitX=1;exitY=0.5;exitDx=0;exitDy=0;entryX=0.017;entryY=0.142;entryDx=0;entryDy=0;strokeColor=default;strokeWidth=2;align=center;verticalAlign=middle;fontFamily=Architects Daughter;fontSource=https%3A%2F%2Ffonts.googleapis.com%2Fcss%3Ffamily%3DArchitects%2BDaughter;fontSize=16;fontColor=default;labelBackgroundColor=default;endArrow=none;endFill=0;flowAnimation=0;sourcePerimeterSpacing=8;targetPerimeterSpacing=8;entryPerimeter=0;" parent="1" source="-mUKGB88UWc1St8DoL5Q-84" target="-mUKGB88UWc1St8DoL5Q-116" edge="1">
          <mxGeometry relative="1" as="geometry" />
        </mxCell>
        <mxCell id="-mUKGB88UWc1St8DoL5Q-84" value="" style="rhombus;whiteSpace=wrap;html=1;fontFamily=Architects Daughter;fontSource=https%3A%2F%2Ffonts.googleapis.com%2Fcss%3Ffamily%3DArchitects%2BDaughter;" parent="1" vertex="1">
          <mxGeometry x="447" y="364" width="56" height="53" as="geometry" />
        </mxCell>
        <mxCell id="-mUKGB88UWc1St8DoL5Q-85" value="" style="rhombus;whiteSpace=wrap;html=1;fontFamily=Architects Daughter;fontSource=https%3A%2F%2Ffonts.googleapis.com%2Fcss%3Ffamily%3DArchitects%2BDaughter;" parent="1" vertex="1">
          <mxGeometry x="123" y="417" width="56" height="53" as="geometry" />
        </mxCell>
        <mxCell id="-mUKGB88UWc1St8DoL5Q-96" style="edgeStyle=orthogonalEdgeStyle;shape=connector;rounded=0;orthogonalLoop=1;jettySize=auto;html=1;exitX=1;exitY=0.5;exitDx=0;exitDy=0;entryX=0;entryY=0.25;entryDx=0;entryDy=0;strokeColor=default;strokeWidth=2;align=center;verticalAlign=middle;fontFamily=Architects Daughter;fontSource=https%3A%2F%2Ffonts.googleapis.com%2Fcss%3Ffamily%3DArchitects%2BDaughter;fontSize=16;fontColor=default;labelBackgroundColor=default;endArrow=none;endFill=0;flowAnimation=0;sourcePerimeterSpacing=8;targetPerimeterSpacing=8;" parent="1" source="-mUKGB88UWc1St8DoL5Q-86" target="-mUKGB88UWc1St8DoL5Q-3" edge="1">
          <mxGeometry relative="1" as="geometry" />
        </mxCell>
        <mxCell id="-mUKGB88UWc1St8DoL5Q-86" value="" style="rhombus;whiteSpace=wrap;html=1;fontFamily=Architects Daughter;fontSource=https%3A%2F%2Ffonts.googleapis.com%2Fcss%3Ffamily%3DArchitects%2BDaughter;" parent="1" vertex="1">
          <mxGeometry x="123" y="344" width="56" height="53" as="geometry" />
        </mxCell>
        <mxCell id="-mUKGB88UWc1St8DoL5Q-88" style="edgeStyle=orthogonalEdgeStyle;shape=connector;rounded=0;orthogonalLoop=1;jettySize=auto;html=1;exitX=0;exitY=0.5;exitDx=0;exitDy=0;entryX=0.994;entryY=0.419;entryDx=0;entryDy=0;entryPerimeter=0;strokeColor=default;strokeWidth=2;align=center;verticalAlign=middle;fontFamily=Architects Daughter;fontSource=https%3A%2F%2Ffonts.googleapis.com%2Fcss%3Ffamily%3DArchitects%2BDaughter;fontSize=16;fontColor=default;labelBackgroundColor=default;endArrow=none;endFill=0;flowAnimation=0;sourcePerimeterSpacing=8;targetPerimeterSpacing=8;" parent="1" source="-mUKGB88UWc1St8DoL5Q-84" target="-mUKGB88UWc1St8DoL5Q-3" edge="1">
          <mxGeometry relative="1" as="geometry" />
        </mxCell>
        <mxCell id="-mUKGB88UWc1St8DoL5Q-89" style="edgeStyle=orthogonalEdgeStyle;shape=connector;rounded=0;orthogonalLoop=1;jettySize=auto;html=1;exitX=1;exitY=0.5;exitDx=0;exitDy=0;entryX=0.009;entryY=0.869;entryDx=0;entryDy=0;entryPerimeter=0;strokeColor=default;strokeWidth=2;align=center;verticalAlign=middle;fontFamily=Architects Daughter;fontSource=https%3A%2F%2Ffonts.googleapis.com%2Fcss%3Ffamily%3DArchitects%2BDaughter;fontSize=16;fontColor=default;labelBackgroundColor=default;endArrow=none;endFill=0;flowAnimation=0;sourcePerimeterSpacing=8;targetPerimeterSpacing=8;" parent="1" source="-mUKGB88UWc1St8DoL5Q-85" target="-mUKGB88UWc1St8DoL5Q-3" edge="1">
          <mxGeometry relative="1" as="geometry" />
        </mxCell>
        <mxCell id="-mUKGB88UWc1St8DoL5Q-91" style="edgeStyle=orthogonalEdgeStyle;shape=connector;rounded=0;orthogonalLoop=1;jettySize=auto;html=1;exitX=0;exitY=0.5;exitDx=0;exitDy=0;entryX=1.005;entryY=0.609;entryDx=0;entryDy=0;entryPerimeter=0;strokeColor=default;strokeWidth=2;align=center;verticalAlign=middle;fontFamily=Architects Daughter;fontSource=https%3A%2F%2Ffonts.googleapis.com%2Fcss%3Ffamily%3DArchitects%2BDaughter;fontSize=16;fontColor=default;labelBackgroundColor=default;endArrow=none;endFill=0;flowAnimation=0;sourcePerimeterSpacing=8;targetPerimeterSpacing=8;" parent="1" source="-mUKGB88UWc1St8DoL5Q-85" target="-mUKGB88UWc1St8DoL5Q-19" edge="1">
          <mxGeometry relative="1" as="geometry" />
        </mxCell>
        <mxCell id="-mUKGB88UWc1St8DoL5Q-94" style="edgeStyle=orthogonalEdgeStyle;shape=connector;rounded=0;orthogonalLoop=1;jettySize=auto;html=1;exitX=0.5;exitY=1;exitDx=0;exitDy=0;strokeColor=default;strokeWidth=2;align=center;verticalAlign=middle;fontFamily=Architects Daughter;fontSource=https%3A%2F%2Ffonts.googleapis.com%2Fcss%3Ffamily%3DArchitects%2BDaughter;fontSize=16;fontColor=default;labelBackgroundColor=default;endArrow=none;endFill=0;flowAnimation=0;sourcePerimeterSpacing=8;targetPerimeterSpacing=8;entryX=0.009;entryY=0.206;entryDx=0;entryDy=0;entryPerimeter=0;" parent="1" source="-mUKGB88UWc1St8DoL5Q-92" target="-mUKGB88UWc1St8DoL5Q-19" edge="1">
          <mxGeometry relative="1" as="geometry" />
        </mxCell>
        <mxCell id="-mUKGB88UWc1St8DoL5Q-92" value="" style="rhombus;whiteSpace=wrap;html=1;fontFamily=Architects Daughter;fontSource=https%3A%2F%2Ffonts.googleapis.com%2Fcss%3Ffamily%3DArchitects%2BDaughter;" parent="1" vertex="1">
          <mxGeometry x="-180" y="302" width="56" height="53" as="geometry" />
        </mxCell>
        <mxCell id="-mUKGB88UWc1St8DoL5Q-95" style="edgeStyle=orthogonalEdgeStyle;shape=connector;rounded=0;orthogonalLoop=1;jettySize=auto;html=1;exitX=0.5;exitY=0;exitDx=0;exitDy=0;entryX=0;entryY=0.662;entryDx=0;entryDy=0;entryPerimeter=0;strokeColor=default;strokeWidth=2;align=center;verticalAlign=middle;fontFamily=Architects Daughter;fontSource=https%3A%2F%2Ffonts.googleapis.com%2Fcss%3Ffamily%3DArchitects%2BDaughter;fontSize=16;fontColor=default;labelBackgroundColor=default;endArrow=none;endFill=0;flowAnimation=0;sourcePerimeterSpacing=8;targetPerimeterSpacing=8;" parent="1" source="-mUKGB88UWc1St8DoL5Q-92" target="-mUKGB88UWc1St8DoL5Q-1" edge="1">
          <mxGeometry relative="1" as="geometry" />
        </mxCell>
        <mxCell id="-mUKGB88UWc1St8DoL5Q-97" style="edgeStyle=orthogonalEdgeStyle;shape=connector;rounded=0;orthogonalLoop=1;jettySize=auto;html=1;exitX=0.5;exitY=0;exitDx=0;exitDy=0;entryX=0.004;entryY=0.707;entryDx=0;entryDy=0;entryPerimeter=0;strokeColor=default;strokeWidth=2;align=center;verticalAlign=middle;fontFamily=Architects Daughter;fontSource=https%3A%2F%2Ffonts.googleapis.com%2Fcss%3Ffamily%3DArchitects%2BDaughter;fontSize=16;fontColor=default;labelBackgroundColor=default;endArrow=none;endFill=0;flowAnimation=0;sourcePerimeterSpacing=8;targetPerimeterSpacing=8;" parent="1" source="-mUKGB88UWc1St8DoL5Q-86" target="-mUKGB88UWc1St8DoL5Q-21" edge="1">
          <mxGeometry relative="1" as="geometry" />
        </mxCell>
        <mxCell id="-mUKGB88UWc1St8DoL5Q-99" style="edgeStyle=orthogonalEdgeStyle;shape=connector;rounded=0;orthogonalLoop=1;jettySize=auto;html=1;exitX=0;exitY=0.5;exitDx=0;exitDy=0;entryX=1.006;entryY=0.841;entryDx=0;entryDy=0;entryPerimeter=0;strokeColor=default;strokeWidth=2;align=center;verticalAlign=middle;fontFamily=Architects Daughter;fontSource=https%3A%2F%2Ffonts.googleapis.com%2Fcss%3Ffamily%3DArchitects%2BDaughter;fontSize=16;fontColor=default;labelBackgroundColor=default;endArrow=none;endFill=0;flowAnimation=0;sourcePerimeterSpacing=8;targetPerimeterSpacing=8;" parent="1" source="-mUKGB88UWc1St8DoL5Q-72" target="-mUKGB88UWc1St8DoL5Q-21" edge="1">
          <mxGeometry relative="1" as="geometry" />
        </mxCell>
        <mxCell id="-mUKGB88UWc1St8DoL5Q-101" style="edgeStyle=orthogonalEdgeStyle;shape=connector;rounded=0;orthogonalLoop=1;jettySize=auto;html=1;exitX=0;exitY=0.5;exitDx=0;exitDy=0;strokeColor=default;strokeWidth=2;align=center;verticalAlign=middle;fontFamily=Architects Daughter;fontSource=https%3A%2F%2Ffonts.googleapis.com%2Fcss%3Ffamily%3DArchitects%2BDaughter;fontSize=16;fontColor=default;labelBackgroundColor=default;endArrow=none;endFill=0;flowAnimation=0;sourcePerimeterSpacing=8;targetPerimeterSpacing=8;entryX=0.998;entryY=0.449;entryDx=0;entryDy=0;entryPerimeter=0;" parent="1" source="-mUKGB88UWc1St8DoL5Q-57" target="-mUKGB88UWc1St8DoL5Q-1" edge="1">
          <mxGeometry relative="1" as="geometry">
            <mxPoint x="80" y="216" as="targetPoint" />
            <Array as="points">
              <mxPoint x="102" y="213" />
              <mxPoint x="102" y="214" />
            </Array>
          </mxGeometry>
        </mxCell>
        <mxCell id="-mUKGB88UWc1St8DoL5Q-102" style="edgeStyle=orthogonalEdgeStyle;shape=connector;rounded=0;orthogonalLoop=1;jettySize=auto;html=1;exitX=1;exitY=0.5;exitDx=0;exitDy=0;strokeColor=default;strokeWidth=2;align=center;verticalAlign=middle;fontFamily=Architects Daughter;fontSource=https%3A%2F%2Ffonts.googleapis.com%2Fcss%3Ffamily%3DArchitects%2BDaughter;fontSize=16;fontColor=default;labelBackgroundColor=default;endArrow=none;endFill=0;flowAnimation=0;sourcePerimeterSpacing=8;targetPerimeterSpacing=8;entryX=0.006;entryY=0.358;entryDx=0;entryDy=0;entryPerimeter=0;" parent="1" source="-mUKGB88UWc1St8DoL5Q-57" target="-mUKGB88UWc1St8DoL5Q-21" edge="1">
          <mxGeometry relative="1" as="geometry">
            <mxPoint x="220" y="233" as="targetPoint" />
          </mxGeometry>
        </mxCell>
        <mxCell id="-mUKGB88UWc1St8DoL5Q-105" style="edgeStyle=orthogonalEdgeStyle;shape=connector;rounded=0;orthogonalLoop=1;jettySize=auto;html=1;exitX=1;exitY=0.5;exitDx=0;exitDy=0;entryX=0.006;entryY=0.857;entryDx=0;entryDy=0;entryPerimeter=0;strokeColor=default;strokeWidth=2;align=center;verticalAlign=middle;fontFamily=Architects Daughter;fontSource=https%3A%2F%2Ffonts.googleapis.com%2Fcss%3Ffamily%3DArchitects%2BDaughter;fontSize=16;fontColor=default;labelBackgroundColor=default;endArrow=none;endFill=0;flowAnimation=0;sourcePerimeterSpacing=8;targetPerimeterSpacing=8;" parent="1" source="-mUKGB88UWc1St8DoL5Q-71" target="-mUKGB88UWc1St8DoL5Q-8" edge="1">
          <mxGeometry relative="1" as="geometry" />
        </mxCell>
        <mxCell id="-mUKGB88UWc1St8DoL5Q-106" style="edgeStyle=orthogonalEdgeStyle;shape=connector;rounded=0;orthogonalLoop=1;jettySize=auto;html=1;exitX=0;exitY=0.5;exitDx=0;exitDy=0;strokeColor=default;strokeWidth=2;align=center;verticalAlign=middle;fontFamily=Architects Daughter;fontSource=https%3A%2F%2Ffonts.googleapis.com%2Fcss%3Ffamily%3DArchitects%2BDaughter;fontSize=16;fontColor=default;labelBackgroundColor=default;endArrow=none;endFill=0;flowAnimation=0;sourcePerimeterSpacing=8;targetPerimeterSpacing=8;" parent="1" source="-mUKGB88UWc1St8DoL5Q-71" edge="1">
          <mxGeometry relative="1" as="geometry">
            <Array as="points">
              <mxPoint x="427" y="208" />
            </Array>
            <mxPoint x="403" y="209" as="targetPoint" />
          </mxGeometry>
        </mxCell>
        <mxCell id="-mUKGB88UWc1St8DoL5Q-108" value="&lt;font face=&quot;Verdana&quot;&gt;1&lt;/font&gt;" style="text;html=1;align=center;verticalAlign=middle;resizable=0;points=[];autosize=1;strokeColor=none;fillColor=none;fontSize=21;fontFamily=Architects Daughter;fontSource=https%3A%2F%2Ffonts.googleapis.com%2Fcss%3Ffamily%3DArchitects%2BDaughter;" parent="1" vertex="1">
          <mxGeometry x="407" y="390" width="31" height="39" as="geometry" />
        </mxCell>
        <mxCell id="-mUKGB88UWc1St8DoL5Q-109" value="&lt;font face=&quot;Helvetica&quot; style=&quot;font-size: 21px;&quot;&gt;N&lt;/font&gt;" style="text;html=1;align=center;verticalAlign=middle;resizable=0;points=[];autosize=1;strokeColor=none;fillColor=none;fontSize=21;fontFamily=Architects Daughter;fontSource=https%3A%2F%2Ffonts.googleapis.com%2Fcss%3Ffamily%3DArchitects%2BDaughter;" parent="1" vertex="1">
          <mxGeometry x="506" y="397" width="33" height="38" as="geometry" />
        </mxCell>
        <mxCell id="-mUKGB88UWc1St8DoL5Q-111" value="&lt;span style=&quot;font-family: Verdana;&quot;&gt;1&lt;/span&gt;" style="text;html=1;align=center;verticalAlign=middle;resizable=0;points=[];autosize=1;strokeColor=none;fillColor=none;fontSize=21;fontFamily=Architects Daughter;fontSource=https%3A%2F%2Ffonts.googleapis.com%2Fcss%3Ffamily%3DArchitects%2BDaughter;" parent="1" vertex="1">
          <mxGeometry x="194" y="442" width="31" height="39" as="geometry" />
        </mxCell>
        <mxCell id="-mUKGB88UWc1St8DoL5Q-112" value="&lt;font face=&quot;Helvetica&quot; style=&quot;font-size: 21px;&quot;&gt;N&lt;/font&gt;" style="text;html=1;align=center;verticalAlign=middle;resizable=0;points=[];autosize=1;strokeColor=none;fillColor=none;fontSize=21;fontFamily=Architects Daughter;fontSource=https%3A%2F%2Ffonts.googleapis.com%2Fcss%3Ffamily%3DArchitects%2BDaughter;" parent="1" vertex="1">
          <mxGeometry x="183" y="261" width="33" height="38" as="geometry" />
        </mxCell>
        <mxCell id="-mUKGB88UWc1St8DoL5Q-113" value="&lt;span style=&quot;font-family: Verdana;&quot;&gt;1&lt;/span&gt;" style="text;html=1;align=center;verticalAlign=middle;resizable=0;points=[];autosize=1;strokeColor=none;fillColor=none;fontSize=21;fontFamily=Architects Daughter;fontSource=https%3A%2F%2Ffonts.googleapis.com%2Fcss%3Ffamily%3DArchitects%2BDaughter;" parent="1" vertex="1">
          <mxGeometry x="190" y="364" width="31" height="39" as="geometry" />
        </mxCell>
        <mxCell id="-mUKGB88UWc1St8DoL5Q-115" value="&lt;span style=&quot;font-family: Verdana;&quot;&gt;1&lt;/span&gt;" style="text;html=1;align=center;verticalAlign=middle;resizable=0;points=[];autosize=1;strokeColor=none;fillColor=none;fontSize=21;fontFamily=Architects Daughter;fontSource=https%3A%2F%2Ffonts.googleapis.com%2Fcss%3Ffamily%3DArchitects%2BDaughter;" parent="1" vertex="1">
          <mxGeometry x="-143" y="378" width="31" height="39" as="geometry" />
        </mxCell>
        <mxCell id="-mUKGB88UWc1St8DoL5Q-116" value="&lt;div style=&quot;box-sizing: border-box ; width: 100% ; background: #e4e4e4 ; padding: 2px&quot;&gt;Contatos&lt;/div&gt;&lt;table style=&quot;width: 100% ; font-size: 1em&quot; cellpadding=&quot;2&quot; cellspacing=&quot;0&quot;&gt;&lt;tbody&gt;&lt;tr&gt;&lt;td&gt;PK&lt;/td&gt;&lt;td&gt;id&lt;/td&gt;&lt;/tr&gt;&lt;tr&gt;&lt;td&gt;&lt;br&gt;&lt;/td&gt;&lt;td&gt;ds_Descricao&lt;/td&gt;&lt;/tr&gt;&lt;tr&gt;&lt;td&gt;&lt;br&gt;&lt;/td&gt;&lt;td&gt;nm_Nome&lt;/td&gt;&lt;/tr&gt;&lt;tr&gt;&lt;td&gt;&lt;br&gt;&lt;/td&gt;&lt;td&gt;cd_Telefone&lt;br&gt;&lt;/td&gt;&lt;/tr&gt;&lt;tr&gt;&lt;td&gt;&lt;br&gt;&lt;/td&gt;&lt;td&gt;ds_Email&lt;/td&gt;&lt;/tr&gt;&lt;tr&gt;&lt;td&gt;FK&lt;/td&gt;&lt;td&gt;cliente_id&lt;/td&gt;&lt;/tr&gt;&lt;/tbody&gt;&lt;/table&gt;" style="verticalAlign=top;align=left;overflow=fill;html=1;rounded=0;shadow=0;comic=0;labelBackgroundColor=none;strokeWidth=1;fontFamily=Verdana;fontSize=12" parent="1" vertex="1">
          <mxGeometry x="546" y="371" width="180" height="134" as="geometry" />
        </mxCell>
        <mxCell id="7BD6tFGF70_WvBWXqgzR-1" value="&lt;span style=&quot;font-family: Verdana;&quot;&gt;1&lt;/span&gt;" style="text;html=1;align=center;verticalAlign=middle;resizable=0;points=[];autosize=1;strokeColor=none;fillColor=none;fontSize=21;fontFamily=Architects Daughter;fontSource=https%3A%2F%2Ffonts.googleapis.com%2Fcss%3Ffamily%3DArchitects%2BDaughter;" vertex="1" parent="1">
          <mxGeometry x="80" y="444" width="31" height="39" as="geometry" />
        </mxCell>
        <mxCell id="7BD6tFGF70_WvBWXqgzR-2" value="&lt;span style=&quot;font-family: Verdana;&quot;&gt;1&lt;/span&gt;" style="text;html=1;align=center;verticalAlign=middle;resizable=0;points=[];autosize=1;strokeColor=none;fillColor=none;fontSize=21;fontFamily=Architects Daughter;fontSource=https%3A%2F%2Ffonts.googleapis.com%2Fcss%3Ffamily%3DArchitects%2BDaughter;" vertex="1" parent="1">
          <mxGeometry x="-143" y="252" width="31" height="39" as="geometry" />
        </mxCell>
      </root>
    </mxGraphModel>
  </diagram>
</mxfile>
